PathFileType   4   (X/Y/Z)
DataRate	CameraRate	NumFrames	NumMarkers	Units	OrigDataRate	OrigDataStartFrame	OrigNumFrames
120.0	120.0	4	37	mm	120.0	86	114
Frame#	Time	midhip	hip_r	hip_l	knee_r	knee_l	ankle_r	ankle_l	midasis	asis_r	asis_l	psis_r	psis_l	epicondLat_r	epicondLat_l	epicondMed_r	epicondMed_l	malleolusLat_r	malleolusLat_l	malleolusMedv_r	malleolusMedv_l	neck	subclavicle_r	subclavicle_l	sternalnotch	xyphoidprocess	thighwand_r	thighwand_l	upperleg1_r	upperleg1_l	upperleg2_r	upperleg2_l	shankwand_r	shankwand_l	lowerleg1_r	lowerleg1_l	toe_r	toe_l
 	 	X1	Y1	Z1	X2	Y2	Z2	X3	Y3	Z3	X4	Y4	Z4	X5	Y5	Z5	X6	Y6	Z6	X7	Y7	Z7	X8	Y8	Z8	X9	Y9	Z9	X10	Y10	Z10	X11	Y11	Z11	X12	Y12	Z12	X13	Y13	Z13	X14	Y14	Z14	X15	Y15	Z15	X16	Y16	Z16	X17	Y17	Z17	X18	Y18	Z18	X19	Y19	Z19	X20	Y20	Z20	X21	Y21	Z21	X22	Y22	Z22	X23	Y23	Z23	X24	Y24	Z24	X25	Y25	Z25	X26	Y26	Z26	X27	Y27	Z27	X28	Y28	Z28	X29	Y29	Z29	X30	Y30	Z30	X31	Y31	Z31	X32	Y32	Z32	X33	Y33	Z33	X34	Y34	Z34	X35	Y35	Z35	X36	Y36	Z36	X37	Y37	Z37

	86	0.82500	936.469	773.992	-235.227	914.048	778.926	-157.008	919.688	774.755	-312.479	916.713	416.272	-190.431	1106.756	429.093	-339.371	855.027	61.476	-204.179	947.791	108.201	-306.434	1041.085	854.926	-232.333	1036.640	858.214	-109.774	1045.531	851.637	-354.892	794.906	915.837	-213.161	794.886	912.088	-266.004	916.703	409.710	-119.232	1106.388	434.441	-410.670	900.331	433.522	-272.789	1120.481	415.164	-246.667	846.152	61.568	-166.716	932.915	111.833	-342.845	865.473	66.067	-239.560	951.318	127.167	-266.782	832.633	1345.743	-239.271	960.812	1280.886	-208.593	960.739	1285.006	-292.122	943.802	1277.269	-262.674	997.449	1205.251	-265.202	1069.093	552.781	-97.641	1182.380	674.072	-325.536	1033.082	578.490	-118.063	1136.233	665.632	-336.423	1003.341	507.872	-137.102	1158.144	595.186	-334.192	960.481	190.611	-172.657	974.967	201.620	-419.920	913.894	199.985	-186.937	982.569	216.979	-373.796	959.007	42.584	-198.470	1033.239	65.857	-321.973
	87	0.83333	947.073	773.228	-235.813	924.242	778.006	-157.702	930.681	774.403	-313.156	920.950	415.816	-190.965	1121.162	430.819	-337.241	855.478	61.705	-204.701	981.565	101.339	-305.317	1051.815	854.039	-232.082	1046.745	856.876	-109.701	1056.884	851.202	-354.463	805.689	915.474	-213.792	805.760	911.715	-266.732	920.015	409.286	-119.770	1121.785	436.163	-408.539	906.108	432.090	-274.444	1127.199	418.856	-243.790	846.519	61.909	-167.258	966.261	104.307	-341.611	866.622	65.788	-239.970	984.439	120.050	-265.548	843.920	1345.317	-239.253	971.544	1280.615	-208.368	971.924	1284.383	-292.034	954.819	1276.854	-262.647	1008.386	1204.694	-264.517	1074.408	549.966	-96.573	1193.925	676.365	-322.344	1038.826	575.754	-118.070	1148.583	668.771	-335.471	1007.831	505.085	-137.354	1170.384	597.142	-331.216	962.051	189.795	-173.057	1002.501	196.897	-418.456	915.925	199.723	-187.841	1009.456	211.963	-372.274	959.094	42.574	-198.572	1069.628	64.880	-321.877
	88	0.84167	957.634	772.341	-236.493	934.360	777.004	-158.500	941.688	773.905	-313.925	925.438	415.292	-191.447	1134.873	432.093	-335.140	855.876	61.980	-205.196	1015.589	95.014	-304.309	1062.567	852.937	-231.886	1056.800	855.376	-109.565	1068.334	850.498	-354.206	816.543	915.103	-214.590	816.727	911.313	-267.656	923.578	408.853	-120.262	1136.553	437.467	-406.418	915.352	427.531	-273.708	1146.803	418.361	-241.184	846.860	62.299	-167.768	999.878	97.265	-340.480	866.572	66.334	-240.582	1017.655	113.391	-264.370	854.853	1344.663	-239.163	982.462	1279.714	-208.842	982.440	1283.514	-291.428	965.847	1276.260	-262.585	1018.890	1203.757	-264.706	1079.833	547.296	-95.492	1205.251	677.981	-319.077	1044.832	573.547	-118.037	1158.243	668.994	-331.945	1014.850	504.097	-136.036	1182.353	598.669	-328.429	963.731	188.956	-173.463	1029.983	192.361	-417.049	917.150	199.772	-188.234	1036.130	206.828	-370.776	959.169	42.563	-198.630	1105.854	64.464	-321.722
	89	0.85000	968.178	771.353	-237.264	944.431	775.935	-159.395	952.729	773.279	-314.780	930.224	414.704	-191.881	1147.945	432.870	-333.070	856.245	62.318	-205.664	1049.727	89.319	-303.422	1073.359	851.645	-231.741	1066.824	853.737	-109.363	1079.893	849.553	-354.119	827.473	914.725	-215.557	827.806	910.891	-268.780	927.446	408.413	-120.712	1150.741	438.302	-404.308	918.607	427.647	-272.255	1157.377	417.899	-242.459	847.188	62.756	-168.247	1033.647	90.805	-339.470	866.642	66.941	-241.126	1051.228	107.254	-263.344	865.906	1343.820	-239.310	993.505	1278.803	-208.993	993.238	1282.742	-291.132	976.890	1275.488	-262.540	1029.749	1202.936	-264.892	1085.405	544.769	-94.413	1216.360	678.915	-315.753	1051.415	572.217	-117.418	1170.013	669.540	-329.458	1019.215	502.640	-134.973	1194.006	599.744	-326.537	965.527	188.088	-173.862	1057.379	188.071	-415.713	919.159	199.579	-188.408	1063.015	202.205	-369.217	959.247	42.540	-198.665	1141.768	64.643	-321.521
